<?xml version="1.0" encoding="UTF-8"?>
<svg width="512" height="512" viewBox="0 0 512 512" fill="none" xmlns="http://www.w3.org/2000/svg">
  <!-- Background -->
  <rect width="512" height="512" rx="64" fill="#37474F"/>
  
  <!-- Grid pattern -->
  <g opacity="0.2">
    <line x1="128" y1="0" x2="128" y2="512" stroke="white" stroke-width="2"/>
    <line x1="256" y1="0" x2="256" y2="512" stroke="white" stroke-width="2"/>
    <line x1="384" y1="0" x2="384" y2="512" stroke="white" stroke-width="2"/>
    <line x1="0" y1="128" x2="512" y2="128" stroke="white" stroke-width="2"/>
    <line x1="0" y1="256" x2="512" y2="256" stroke="white" stroke-width="2"/>
    <line x1="0" y1="384" x2="512" y2="384" stroke="white" stroke-width="2"/>
  </g>
  
  <!-- Exit Zone -->
  <rect x="384" y="384" width="128" height="128" fill="#ECEFF1" opacity="0.9"/>
  <rect x="400" y="400" width="96" height="96" stroke="#B0BEC5" stroke-width="6"/>
  
  <!-- Big Square Block (Target) -->
  <g>
    <rect x="256" y="256" width="128" height="128" rx="16" fill="#FF5252"/>
    <rect x="256" y="256" width="128" height="128" rx="16" stroke="#D32F2F" stroke-width="6"/>
    <!-- Target indicator -->
    <circle cx="320" cy="320" r="16" fill="white"/>
    <circle cx="320" cy="320" r="28" stroke="white" stroke-width="4" fill="none"/>
    <circle cx="320" cy="320" r="40" stroke="white" stroke-width="4" fill="none"/>
  </g>
  
  <!-- Small Square Block -->
  <g>
    <rect x="128" y="128" width="64" height="64" rx="8" fill="#4CAF50"/>
    <rect x="128" y="128" width="64" height="64" rx="8" stroke="#388E3C" stroke-width="4"/>
  </g>
  
  <!-- Horizontal Rectangle Block -->
  <g>
    <rect x="256" y="128" width="128" height="64" rx="8" fill="#2196F3"/>
    <rect x="256" y="128" width="128" height="64" rx="8" stroke="#1976D2" stroke-width="4"/>
  </g>
  
  <!-- Vertical Rectangle Block -->
  <g>
    <rect x="128" y="256" width="64" height="128" rx="8" fill="#FFC107"/>
    <rect x="128" y="256" width="64" height="128" rx="8" stroke="#FFA000" stroke-width="4"/>
  </g>
  
  <!-- Small Square Block -->
  <g>
    <rect x="64" y="64" width="64" height="64" rx="8" fill="#4CAF50"/>
    <rect x="64" y="64" width="64" height="64" rx="8" stroke="#388E3C" stroke-width="4"/>
  </g>
  
  <!-- Light effects -->
  <g opacity="0.2">
    <circle cx="288" cy="288" r="180" fill="white" filter="blur(60px)"/>
  </g>
</svg>
